<svg id="Layer_1" data-name="Layer 1" xmlns="http://www.w3.org/2000/svg" xmlns:xlink="http://www.w3.org/1999/xlink" viewBox="0 0 740 812.85"><defs><style>.cls-1{isolation:isolate;}.cls-2{fill:#eeb111;}</style></defs><title>Logo</title><image id="Layer_0" data-name="Layer 0" class="cls-1" width="740" height="680" xlink:href="Logo1.png"/><path class="cls-2" d="M305.81,861.85v9.49H273.7v29.77h28.86v9.49H273.7v32.76h32.11v9.49H262.39v-91Z" transform="translate(-230 -140)"/><path class="cls-2" d="M341.69,943.1V897.6H332.2v-9.75h19.89v3.51a15.9,15.9,0,0,1,10.4-3.51h13.39v10.4H361.19a7.43,7.43,0,0,0-6.24,2.67,9.53,9.53,0,0,0-2.21,5.39V943.1h14.17v9.75H332.2V943.1Z" transform="translate(-230 -140)"/><path class="cls-2" d="M411.89,943.1V897.6H402.4v-9.75h19.89v3.51a15.9,15.9,0,0,1,10.4-3.51h13.39v10.4H431.39a7.43,7.43,0,0,0-6.24,2.67,9.53,9.53,0,0,0-2.21,5.39V943.1h14.17v9.75H402.4V943.1Z" transform="translate(-230 -140)"/><path class="cls-2" d="M513.49,947.91q-5.4,4.94-16.71,4.94h-4.29q-11.31,0-16.7-4.94t-5.4-15.86v-23.4q0-10.92,5.4-15.86t16.7-4.94h4.29q11.31,0,16.71,4.94t5.39,15.86v23.4Q518.88,943,513.49,947.91Zm-8.13-48.1c-1.65-1.47-4.07-2.21-7.28-2.21h-6.89c-3.21,0-5.63.74-7.28,2.21a7.92,7.92,0,0,0-2.47,6.24v28.6a7.92,7.92,0,0,0,2.47,6.24c1.65,1.47,4.07,2.21,7.28,2.21h6.89c3.21,0,5.63-.74,7.28-2.21a7.92,7.92,0,0,0,2.47-6.24v-28.6A7.92,7.92,0,0,0,505.36,899.81Z" transform="translate(-230 -140)"/><path class="cls-2" d="M552.29,943.1V897.6H542.8v-9.75h19.89v3.51a15.9,15.9,0,0,1,10.4-3.51h13.39v10.4H571.79a7.43,7.43,0,0,0-6.24,2.67,9.46,9.46,0,0,0-2.21,5.39V943.1h14.17v9.75H542.8V943.1Z" transform="translate(-230 -140)"/><path class="cls-2" d="M708.29,952.85V932.57H681.51V921.39l13.91-59.54H706l-13.26,61.23h15.6V893.44h11.05v29.64h9.75v9.49h-9.75v20.28Z" transform="translate(-230 -140)"/><path class="cls-2" d="M792.72,947.19q-5.91,5.65-15.92,5.66h-2.6q-10,0-15.93-5.66t-5.91-16.44V884q0-10.92,5.85-16.51t16-5.59h2.6q10.14,0,16,5.59T798.64,884v46.8Q798.64,941.54,792.72,947.19Zm-8.19-72.67a10.71,10.71,0,0,0-7.73-2.92h-2.6a10.75,10.75,0,0,0-7.74,2.92,9.33,9.33,0,0,0-3.05,7v35.23l24.18-35.23A9.3,9.3,0,0,0,784.53,874.52Zm-18.07,65.65a10.71,10.71,0,0,0,7.74,2.93h2.6a10.67,10.67,0,0,0,7.73-2.93,9.28,9.28,0,0,0,3.06-6.95v-35.1l-24.18,35.1A9.31,9.31,0,0,0,766.46,940.17Z" transform="translate(-230 -140)"/><path class="cls-2" d="M848.69,952.85V932.57H821.91V921.39l13.91-59.54h10.53l-13.26,61.23h15.6V893.44h11v29.64h9.75v9.49h-9.75v20.28Z" transform="translate(-230 -140)"/><path class="cls-2" d="M922.4,939.85v13h-13v-13Z" transform="translate(-230 -140)"/></svg>