<svg height="852pt" viewBox="-106 -26 852 852.49995" width="852pt" xmlns="http://www.w3.org/2000/svg"><path d="m326.480469 610.988281c0 7.355469-5.964844 13.316407-13.316407 13.316407-7.359374 0-13.328124-5.960938-13.328124-13.316407 0-7.363281 5.96875-13.324219 13.328124-13.324219 7.351563 0 13.316407 5.960938 13.316407 13.324219zm0 0"/><path d="m60.078125 158.09375c-36.765625.050781-66.5625 29.839844-66.605469 66.601562v372.96875c.042969 36.761719 29.839844 66.558594 66.605469 66.605469h184.882813c-5.40625 24.8125-24.695313 53.277344-51.683594 53.277344-22.0625 0-39.960938 17.894531-39.960938 39.960937 0 22.070313 17.898438 39.960938 39.960938 39.960938h239.769531c22.070313 0 39.957031-17.890625 39.957031-39.960938 0-22.066406-17.886718-39.960937-39.957031-39.960937-26.988281 0-46.273437-28.464844-51.683594-53.277344h184.882813c36.761718-.046875 66.558594-29.84375 66.605468-66.605469v-372.96875c-.046874-36.761718-29.84375-66.550781-66.605468-66.601562-7.359375 0-13.320313 5.960938-13.320313 13.324219 0 7.351562 5.960938 13.316406 13.320313 13.316406 22.070312 0 39.964844 17.898437 39.964844 39.960937v333.007813h-586.09375v-333.007813c0-22.0625 17.886718-39.960937 39.960937-39.960937 7.355469 0 13.316406-5.964844 13.316406-13.316406 0-7.363281-5.960937-13.324219-13.316406-13.324219zm372.96875 612.738281h-239.769531c-7.351563 0-13.324219-5.964843-13.324219-13.324219 0-7.355468 5.972656-13.316406 13.324219-13.316406h239.769531c7.351563 0 13.316406 5.960938 13.316406 13.316406 0 7.359376-5.964843 13.324219-13.316406 13.324219zm-54.199219-53.285156h-131.367187c12.882812-15.199219 21.402343-33.613281 24.625-53.277344h82.113281c3.222656 19.664063 11.734375 38.078125 24.628906 53.277344zm227.363282-133.203125v13.320312c0 22.070313-17.894532 39.960938-39.964844 39.960938h-506.167969c-22.074219 0-39.960937-17.890625-39.960937-39.960938v-13.320312zm0 0"/><path d="m60.078125 517.742188h186.480469c7.363281 0 13.324218-5.960938 13.324218-13.320313 0-7.351563-5.960937-13.316406-13.324218-13.316406h-186.480469c-7.363281 0-13.324219 5.964843-13.324219 13.316406 0 7.359375 5.960938 13.320313 13.324219 13.320313zm0 0"/><path d="m60.078125 464.464844h79.921875c7.351562 0 13.316406-5.964844 13.316406-13.324219 0-7.351563-5.964844-13.320313-13.316406-13.320313h-79.921875c-7.363281 0-13.324219 5.96875-13.324219 13.320313 0 7.359375 5.960938 13.324219 13.324219 13.324219zm0 0"/><path d="m406.40625 491.105469c-7.359375 0-13.324219 5.964843-13.324219 13.316406 0 7.359375 5.964844 13.320313 13.324219 13.320313h66.597656c7.359375 0 13.320313-5.960938 13.320313-13.320313 0-7.351563-5.960938-13.316406-13.320313-13.316406zm0 0"/><path d="m60.078125 411.183594h39.953125c7.363281 0 13.328125-5.964844 13.328125-13.324219 0-7.355469-5.964844-13.320313-13.328125-13.320313h-39.953125c-7.363281 0-13.324219 5.964844-13.324219 13.320313 0 7.359375 5.960938 13.324219 13.324219 13.324219zm0 0"/><path d="m60.078125 357.898438h26.636719c7.355468 0 13.316406-5.964844 13.316406-13.316407 0-7.359375-5.960938-13.324219-13.316406-13.324219h-26.636719c-7.363281 0-13.324219 5.964844-13.324219 13.324219 0 7.351563 5.960938 13.316407 13.324219 13.316407zm0 0"/><path d="m566.246094 491.105469h-26.636719c-7.363281 0-13.324219 5.964843-13.324219 13.316406 0 7.359375 5.960938 13.320313 13.324219 13.320313h26.636719c7.355468 0 13.316406-5.960938 13.316406-13.320313 0-7.351563-5.960938-13.316406-13.316406-13.316406zm0 0"/><path d="m566.246094 384.539062h-39.960938c-7.355468 0-13.316406 5.964844-13.316406 13.320313 0 7.359375 5.960938 13.324219 13.316406 13.324219h39.960938c7.355468 0 13.316406-5.964844 13.316406-13.324219 0-7.355469-5.960938-13.320313-13.316406-13.320313zm0 0"/><path d="m566.246094 437.820312h-66.605469c-7.351563 0-13.316406 5.96875-13.316406 13.320313 0 7.359375 5.964843 13.324219 13.316406 13.324219h66.605469c7.355468 0 13.316406-5.964844 13.316406-13.324219 0-7.351563-5.960938-13.320313-13.316406-13.320313zm0 0"/><path d="m259.882812 184.734375v4.648437c-4.640624 2.984376-8.34375 7.21875-10.660156 12.230469l-15.980468-10.65625v-46.179687c0-7.359375-5.964844-13.324219-13.320313-13.324219s-13.320313 5.964844-13.320313 13.324219v46.152344c0 8.90625 4.449219 17.222656 11.867188 22.160156l28.089844 18.730468v6.195313h-26.636719c-7.355469 0-13.320313 5.96875-13.320313 13.320313 0 7.359374 5.964844 13.324218 13.320313 13.324218h26.636719v6.1875l-28.089844 18.730469c-7.417969 4.941406-11.867188 13.257813-11.867188 22.164063v46.15625c0 7.359374 5.964844 13.324218 13.320313 13.324218s13.320313-5.964844 13.320313-13.324218v-46.15625l14.410156-9.597657c5.199218 32.136719 32.949218 55.753907 65.511718 55.753907 32.550782 0 60.300782-23.617188 65.503907-55.753907l14.414062 9.597657v46.15625c0 7.359374 5.964844 13.324218 13.324219 13.324218 7.351562 0 13.320312-5.964844 13.320312-13.324218v-46.15625c0-8.90625-4.460937-17.222657-11.871093-22.164063l-28.097657-18.730469v-6.1875h26.648438c7.351562 0 13.320312-5.964844 13.320312-13.324218 0-7.351563-5.96875-13.320313-13.320312-13.320313h-26.648438v-6.195313l28.097657-18.730468c7.410156-4.9375 11.871093-13.253906 11.871093-22.160156v-46.152344c0-7.359375-5.96875-13.324219-13.320312-13.324219-7.359375 0-13.324219 5.964844-13.324219 13.324219v46.152344l-15.980469 10.660156c-2.324218-5.007813-6.019531-9.25-10.660156-12.234375v-4.621094c0-29.417969-23.851562-53.28125-53.277344-53.28125-29.429687 0-53.28125 23.863281-53.28125 53.28125zm93.238282 28.941406v28.976563c-25.429688 11.375-54.492188 11.375-79.921875 0v-28.976563c0-.605469.238281-1.191406.671875-1.625.429687-.433593 1.023437-.675781 1.632812-.671875h75.308594c.621094-.003906 1.207031.238282 1.632812.671875.4375.433594.679688 1.019531.675782 1.625zm-39.957032 117.582031c-22.074218 0-39.964843-17.890624-39.964843-39.957031v-20.195312c25.851562 9.183593 54.074219 9.183593 79.921875 0v20.195312c0 22.066407-17.894532 39.957031-39.957032 39.957031zm26.640626-146.523437h-53.285157c0-14.71875 11.929688-26.640625 26.644531-26.640625 14.710938 0 26.640626 11.921875 26.640626 26.640625zm0 0"/><path d="m313.164062-1.75c-7.359374 0-13.328124 5.960938-13.328124 13.324219v27.316406c-107.011719 6.828125-192.296876 92.101563-199.121094 199.125h-27.320313c-7.351562 0-13.316406 5.96875-13.316406 13.320313 0 7.359374 5.964844 13.324218 13.316406 13.324218h27.320313c6.824218 107.015625 92.109375 192.296875 199.121094 199.121094v27.324219c0 7.351562 5.96875 13.316406 13.328124 13.316406 7.351563 0 13.316407-5.964844 13.316407-13.316406v-27.324219c107.015625-6.824219 192.296875-92.105469 199.128906-199.121094h27.316406c7.359375 0 13.320313-5.964844 13.320313-13.324218 0-7.351563-5.960938-13.320313-13.320313-13.320313h-27.316406c-6.832031-107.023437-92.113281-192.296875-199.128906-199.125v-27.316406c0-7.363281-5.964844-13.324219-13.316407-13.324219zm185.804688 239.765625h-25.964844c-7.351562 0-13.316406 5.96875-13.316406 13.320313 0 7.359374 5.964844 13.324218 13.316406 13.324218h25.964844c-6.707031 92.332032-80.144531 165.777344-172.488281 172.480469v-25.957031c0-7.363282-5.964844-13.324219-13.316407-13.324219-7.359374 0-13.328124 5.960937-13.328124 13.324219v25.957031c-92.339844-6.703125-165.769532-80.148437-172.476563-172.480469h25.957031c7.359375 0 13.320313-5.964844 13.320313-13.324218 0-7.351563-5.960938-13.320313-13.320313-13.320313h-25.957031c6.707031-92.339844 80.136719-165.773437 172.476563-172.484375v25.964844c0 7.351562 5.96875 13.316406 13.328124 13.316406 7.351563 0 13.316407-5.964844 13.316407-13.316406v-25.964844c92.34375 6.710938 165.78125 80.144531 172.488281 172.484375zm0 0"/></svg>